<svg xmlns="http://www.w3.org/2000/svg" aria-hidden="true" style="position:absolute;width:0;height:0;overflow:hidden">
  <defs>
    <symbol id="icon-accessibility" viewBox="0 0 32 32">
      <path fill="#a729f5" d="M13.5 6.5a2.5 2.5 0 1 1 5 0 2.5 2.5 0 1 1-5 0zM16 2a4.5 4.5 0 0 0-4.374 5.563l-.006-.031-3.224-1.3a3.201 3.201 0 0 0-4.144 1.723l-.008.021a3.161 3.161 0 0 0 1.719 4.132l.021.008L10 13.738v4.768l-3.626 6.82a3.185 3.185 0 0 0 5.611 3.005l.008-.015 4.006-7.536 4.008 7.536a3.182 3.182 0 1 0 5.611-3.005l.008.017-3.628-6.824v-4.766l4.016-1.622a3.165 3.165 0 0 0 1.732-4.16l.008.021a3.206 3.206 0 0 0-4.173-1.739l.021-.008-3.222 1.302A4.5 4.5 0 0 0 15.999 2h-.001zM6.094 8.738a1.203 1.203 0 0 1 1.56-.651l-.008-.003 6.856 2.77c.443.184.958.291 1.498.291s1.054-.107 1.524-.301l-.027.01 6.856-2.77a1.2 1.2 0 0 1 1.549.646l.003.008a1.159 1.159 0 0 1-.632 1.521l-.008.003-4.016 1.62a2.005 2.005 0 0 0-1.25 1.854v4.771c0 .328.08.651.234.94l3.628 6.822a1.184 1.184 0 0 1-2.085 1.117l-.003-.005-4.008-7.54a2 2 0 0 0-3.527-.01l-.005.011-4.006 7.534a1.182 1.182 0 1 1-2.084-1.116l-.003.006 3.626-6.82c.147-.271.234-.594.234-.938V13.74a2 2 0 0 0-1.237-1.849l-.013-.005-4.016-1.624a1.163 1.163 0 0 1-.637-1.529l-.003.008z" style="fill:var(--color1, #a729f5)"/>
    </symbol>
    <symbol id="icon-correct" viewBox="0 0 32 32">
      <path fill="#26d782" d="M16 4c6.627 0 12 5.373 12 12s-5.373 12-12 12S4 22.627 4 16 9.373 4 16 4zm0 2C10.477 6 6 10.477 6 16s4.477 10 10 10 10-4.477 10-10S21.523 6 16 6zm-1.5 12.084 5.74-5.756a1 1 0 0 1 1.53 1.278l.002-.003-.116.139-6.448 6.464a.997.997 0 0 1-1.279.117l.003.002-.14-.116-3.5-3.5a1 1 0 0 1 1.279-1.528l-.003-.002.14.114 2.792 2.792z" style="fill:var(--color2, #26d782)"/>
    </symbol>
    <symbol id="icon-css" viewBox="0 0 32 32">
      <path fill="#2fd887" d="M8 2.004a1 1 0 0 0-1 1V17a4 4 0 0 0 4 4h1v5a3.999 3.999 0 0 0 7.682 1.556l.01-.026c.2-.486.304-1.006.304-1.53v-5H21a4 4 0 0 0 4-4V3.004a1 1 0 0 0-1-1H8zM23 14H9V4.004h6v3.004a1 1 0 0 0 2 0V4.004h2v4.992a1 1 0 0 0 2 0V4.004h2V14zM9 17v-1h14v1a2 2 0 0 1-2 2h-2.004a1 1 0 0 0-1 1v6A1.999 1.999 0 0 1 14 26v-6a1 1 0 0 0-1-1h-2a2 2 0 0 1-2-2z" style="fill:var(--color3, #2fd887)"/>
    </symbol>
    <symbol id="icon-html" viewBox="0 0 32 32">
      <path fill="#ff7e35" d="M19.606 6.086a1.002 1.002 0 0 1 .504 1.327l.003-.006-8 18a1 1 0 1 1-1.825-.818l-.003.006 8-18a1.003 1.003 0 0 1 1.326-.506l-.006-.003zm-10.94 4.666a.996.996 0 0 1 .079 1.413l.001-.001L5.34 16l3.41 3.836a1 1 0 0 1-1.495 1.329l-.001-.001-4-4.5a1 1 0 0 1 .001-1.329l-.001.001 4-4.5a1 1 0 0 1 1.413-.083l-.001-.001zm14.669 0a1 1 0 0 1 1.411.083l.001.001 4 4.5a1 1 0 0 1-.001 1.329l.001-.001-4 4.5a1 1 0 1 1-1.495-1.329l-.001.001L26.661 16l-3.41-3.836a1 1 0 0 1 .083-1.411l.001-.001z" style="fill:var(--color5, #ff7e35)"/>
    </symbol>
    <symbol id="icon-incorrect" viewBox="0 0 32 32">
      <path fill="#ee5454" d="M16 4c6.627 0 12 5.373 12 12s-5.373 12-12 12S4 22.627 4 16 9.373 4 16 4zm0 2C10.477 6 6 10.477 6 16s4.477 10 10 10 10-4.477 10-10S21.523 6 16 6zm-4.322 5.932.114-.14a.996.996 0 0 1 1.28-.112l-.003-.002.14.114 2.792 2.794 2.792-2.794a.996.996 0 0 1 1.28-.112l-.003-.002.14.114a.998.998 0 0 1 .112 1.279l.002-.003-.114.14L17.416 16l2.794 2.792a.998.998 0 0 1 .112 1.279l.002-.003-.114.14a.998.998 0 0 1-1.279.112l.003.002-.14-.114-2.792-2.794-2.792 2.794a.998.998 0 0 1-1.279.112l.003.002-.14-.114a.996.996 0 0 1-.112-1.28l-.002.003.114-.14 2.794-2.792-2.794-2.792a.996.996 0 0 1-.112-1.28l-.002.003z" style="fill:var(--color4, #ee5454)"/>
    </symbol>
    <symbol id="icon-js" viewBox="0 0 32 32">
      <path fill="#306aff" d="M17 15a3 3 0 0 1 3-3h3a1 1 0 0 1 0 2h-3a1 1 0 0 0-1 1v1a1 1 0 0 0 1 1h1a3 3 0 0 1 3 3v1a3 3 0 0 1-3 3h-3a1 1 0 0 1 0-2h3a1 1 0 0 0 1-1v-1a1 1 0 0 0-1-1h-1a3 3 0 0 1-3-3v-1zm-1-2a1 1 0 0 0-2 0v8a1 1 0 0 1-1 1h-2a1 1 0 0 0 0 2h2a3 3 0 0 0 3-3v-8zM4 9a5 5 0 0 1 5-5h14a5 5 0 0 1 5 5v14a5 5 0 0 1-5 5H9a5 5 0 0 1-5-5V9zm5-3a3 3 0 0 0-3 3v14a3 3 0 0 0 3 3h14a3 3 0 0 0 3-3V9a3 3 0 0 0-3-3H9z" style="fill:var(--color6, #306aff)"/>
    </symbol>
    <symbol id="icon-moon" viewBox="0 0 32 32">
      <path d="M15.7 6.029c5.173.421 9.212 4.723 9.212 9.969 0 5.523-4.477 10-10 10a9.992 9.992 0 0 1-8.358-4.507l-.023-.038c2.805-.76 6.632-2.604 8.32-7.101 1.104-2.948 1.168-5.877.849-8.321zM26.912 16v-.004C26.912 9.371 21.541 4 14.916 4c-.149 0-.298.003-.445.008l.021-.001a1 1 0 0 0-.95 1.19l-.001-.006c.46 2.428.56 5.456-.565 8.456-1.6 4.268-5.604 5.68-8.153 6.141a1.001 1.001 0 0 0-.72 1.427l-.003-.006c1.984 4.053 6.078 6.794 10.812 6.794 6.627 0 12-5.373 12-12v-.005z"/>
    </symbol>
    <symbol id="icon-sun" viewBox="0 0 32 32">
      <path d="M16 2a1 1 0 0 1 1 1v2a1 1 0 0 1-2 0V3a1 1 0 0 1 1-1zm0 20a6 6 0 1 0 0-12 6 6 0 1 0 0 12zm0-2a4 4 0 0 1 0-8 4 4 0 0 1 0 8zm13-3a1 1 0 0 0 0-2h-2a1 1 0 0 0 0 2h2zm-13 9a1 1 0 0 1 1 1v2a1 1 0 0 1-2 0v-2a1 1 0 0 1 1-1zM5 17a1 1 0 0 0 0-2H3a1 1 0 0 0 0 2h2zM6.292 6.292a.998.998 0 0 1 1.416 0l2 2a1 1 0 0 1-1.416 1.416l-2-2a.998.998 0 0 1 0-1.416zm1.416 19.416A.998.998 0 0 1 6 25.002a1 1 0 0 1 .292-.707l2-2a.998.998 0 0 1 1.708.706 1 1 0 0 1-.292.707l-2 2zm18-19.416a.998.998 0 0 0-1.416 0l-2 2a1 1 0 0 0 1.416 1.416l2-2a.998.998 0 0 0 0-1.416zm-1.416 19.416A.998.998 0 0 0 26 25.002a1 1 0 0 0-.292-.707l-2-2a.998.998 0 0 0-1.708.706 1 1 0 0 0 .292.707l2 2z"/>
    </symbol>
  </defs>
</svg>